<?xml version="1.0" encoding="UTF-8" standalone="no"?>
<!-- Created with Inkscape (http://www.inkscape.org/) -->

<svg
   width="495.93301mm"
   height="92.014mm"
   viewBox="0 0 1874.3924 347.76945"
   version="1.1"
   id="svg5"
   inkscape:version="1.1.2 (0a00cf5339, 2022-02-04, custom)"
   sodipodi:docname="logo8-vectorr.svg"
   xmlns:inkscape="http://www.inkscape.org/namespaces/inkscape"
   xmlns:sodipodi="http://sodipodi.sourceforge.net/DTD/sodipodi-0.dtd"
   xmlns="http://www.w3.org/2000/svg"
   xmlns:svg="http://www.w3.org/2000/svg">
  <sodipodi:namedview
     id="namedview7"
     pagecolor="#ffffff"
     bordercolor="#666666"
     borderopacity="1.0"
     inkscape:pageshadow="2"
     inkscape:pageopacity="0"
     inkscape:pagecheckerboard="true"
     inkscape:document-units="mm"
     showgrid="false"
     inkscape:zoom="0.35466766"
     inkscape:cx="1101.0308"
     inkscape:cy="496.23921"
     inkscape:window-width="1316"
     inkscape:window-height="739"
     inkscape:window-x="0"
     inkscape:window-y="0"
     inkscape:window-maximized="1"
     inkscape:current-layer="g9899" />
  <defs
     id="defs2">
    <rect
       x="183.56271"
       y="297.65155"
       width="1920.3666"
       height="311.82687"
       id="rect11023" />
    <rect
       x="153.19827"
       y="289.17401"
       width="830.0495"
       height="348.43359"
       id="rect6155" />
    <rect
       x="287.52829"
       y="375.44449"
       width="1944.709"
       height="558.69299"
       id="rect3993" />
    <rect
       x="287.52829"
       y="375.44449"
       width="1944.709"
       height="558.69299"
       id="rect9901" />
    <rect
       x="153.19827"
       y="289.17401"
       width="830.0495"
       height="348.43359"
       id="rect9903" />
    <rect
       x="183.56271"
       y="297.65155"
       width="1920.3666"
       height="311.82687"
       id="rect9905" />
    <filter
       inkscape:collect="always"
       style="color-interpolation-filters:sRGB"
       id="filter11390"
       x="-0.031656357"
       y="-0.23922667"
       width="1.0633646"
       height="1.4761619">
      <style
         id="style9">
       @import url('https://fonts.googleapis.com/css2?family=Caveat+Brush&amp;display=swap');
    </style>
      <feGaussianBlur
         inkscape:collect="always"
         stdDeviation="2.5514114"
         id="feGaussianBlur11392" />
    </filter>
  </defs>
  <g
     inkscape:label="Layer 1 copy"
     inkscape:groupmode="layer"
     id="g9899">
    <text
       xml:space="preserve"
       id="text9891"
       style="font-style:normal;font-weight:normal;font-size:40px;line-height:1.25;font-family:sans-serif;white-space:pre;shape-inside:url(#rect9901);fill:#000000;fill-opacity:1;stroke:none"
       transform="translate(-155.17222,-527.41921)" />
    <text
       xml:space="preserve"
       id="text9893"
       style="font-style:normal;font-weight:normal;font-size:40px;line-height:1.25;font-family:sans-serif;white-space:pre;shape-inside:url(#rect9903);fill:#000000;fill-opacity:1;stroke:none"
       transform="translate(-155.17222,-527.41921)" />
    <g
       aria-label="Türkçe Anime Arşivi"
       transform="matrix(6.4937568,0,0,6.4937568,-1141.5094,-1931.1755)"
       id="text9897"
       style="font-size:40px;line-height:1.25;letter-spacing:-0.230991px;word-spacing:-0.307988px;white-space:pre;shape-inside:url(#rect9905);fill:#ffffff;stroke:#000000;stroke-width:4.95769;filter:url(#filter11390)">
      <path
         d="m 196.6825,312.40735 q -0.08,0.72 -0.08,1.48 0,1.44 -0.16,2.6 -0.16,1.16 -0.2,1.6 -0.04,0.4 -0.12,0.8 v 0.28 q 0,0.72 -0.32,1.44 l -0.12,1.8 -0.16,3.8 v 2 q 0,1.52 -0.16,1.64 l 0.04,1.04 v 0.44 l -0.04,0.48 q 0,0.16 -0.08,0.16 0.08,0.48 -0.4,1.04 -0.44,0.52 -1.12,0.68 l -0.72,0.12 q -0.16,0 -0.44,0.04 -0.28,0 -0.48,-0.08 -0.2,-0.08 -0.4,-0.2 -0.4,-0.24 -0.56,-0.92 -0.12,-0.2 -0.48,-2.44 0,-0.48 -0.08,-1.2 l 0.12,-0.96 v -0.76 q 0,-0.72 0.16,-1 -0.16,-0.24 0.2,-1.04 -0.28,-0.36 0.04,-1.6 -0.16,-0.52 0,-0.68 0.08,-0.24 0.08,-1.12 l 0.04,-0.4 q 0,-1.16 0.24,-2.12 -0.08,-0.12 0,-0.64 0.08,-0.52 0.12,-1.24 v -0.28 q 0.04,-0.6 0.04,-1.28 l 0.04,-0.36 q 0,-0.24 0.08,-0.96 0.12,-0.72 0.2,-1.52 h -0.08 q -4.24,1.16 -5.2,1.16 l -0.68,0.04 q -0.6,0 -1.24,-0.2 -0.32,-0.16 -0.48,-0.84 0,-1.32 0.56,-1.92 0.6,-0.6 2.2,-1.12 0.4,-0.04 4.96,-1.68 l 1.72,-0.4 q 0.48,-0.16 1.52,-0.16 1.04,0 1.72,-0.24 0.72,-0.28 1.56,-0.4 0.84,-0.16 1.76,-0.32 0.44,-0.16 1.6,0.08 0.44,0 1.4,0.92 l 0.24,0.56 q 0,0.24 0.12,0.36 0.16,1.08 -0.48,1.4 -0.24,0.12 -0.84,0.32 -0.8,0 -4,0.8 -0.16,0 -1.6,0.24 l -0.04,0.52 z"
         style="font-family:'Caveat Brush';-inkscape-font-specification:'Caveat Brush'"
         id="path1174" />
      <path
         d="m 217.17148,309.40735 q 1.4,0 1.76,1.52 0,1.36 -0.84,2.2 -0.84,0.8 -1.6,0.8 -0.72,0 -1.84,-0.68 -1.08,-0.68 -1.08,-1.48 0,-2 1.72,-2.4 0.52,-0.04 1.48,0.12 0,-0.08 0.4,-0.08 z m -8.12,4.24 q -0.92,0 -1.84,-0.56 -0.92,-0.56 -0.92,-1.76 0,-2.2 2,-2.56 1.96,0.68 2.2,0.92 l 0.6,1.36 q -0.12,0.84 -0.84,1.72 -0.72,0.88 -1.2,0.88 z m 8,9.32 0.04,0.76 q 0,0.12 0.24,2.52 v 0.48 q 0,0.96 0.32,2.88 0,0.84 0.84,2.92 0.2,0.12 0.28,0.56 l -0.04,0.4 q 0.08,0.2 -0.2,0.44 0,0.28 -0.76,0.28 -0.76,0 -0.96,0.08 -0.2,0.08 -0.64,-0.08 -0.16,0.08 -0.96,-0.32 -0.36,-0.08 -0.56,-0.72 l -0.32,-0.76 q 0,-0.72 -0.4,-1.28 0,-0.2 -0.2,-0.72 -0.16,-0.52 -0.24,-0.56 -0.4,1.6 -1,2.48 0,0.2 -0.24,0.48 l -0.4,0.76 q 0,0.08 -0.36,0.44 -0.24,0.52 -1.08,0.52 -0.76,0 -1.84,-0.4 -0.28,-0.04 -1.12,-0.36 -0.24,0.04 -0.76,-0.12 -0.48,-0.2 -0.56,-0.2 -0.12,-0.12 -0.56,-0.4 l -0.68,-0.72 q -0.04,-0.04 -0.16,-0.36 -0.08,-0.36 -0.04,-0.48 0.04,-0.16 0,-0.44 -0.04,-0.28 0.04,-0.56 0,-0.8 0.16,-1.76 -0.04,-0.12 -0.04,-0.28 0,-0.16 0.16,-0.6 -0.04,-0.2 -0.04,-0.28 l 0.2,-1.56 q 0,-0.56 0.04,-0.8 v -0.6 q 0.04,-0.16 0.04,-0.44 l 0.2,-1.92 q 0,-0.44 0.04,-0.56 v -0.4 q 0.08,-0.08 0.08,-0.64 l 0.36,-1.12 0.28,-0.48 q 0.04,-0.16 0.44,-0.36 0.64,-0.4 1.84,-0.4 0.48,0.08 1.04,0.4 0.12,-0.04 0.56,0.16 0.8,0.36 0.08,2.04 -0.16,1.08 -0.16,1.12 -0.16,0.32 -0.16,0.52 -0.24,1.28 -0.24,1.36 0.16,-0.16 -0.12,0.48 l -0.16,1.48 q -0.28,0.96 -0.24,2.12 l -0.16,0.52 q 0.04,0.2 -0.04,1.24 0.08,0.12 0.08,0.28 l 0.04,0.32 q -0.04,0.12 0.04,0.24 0.08,0.08 0.44,0.08 0.4,-0.04 0.68,-0.2 0.56,-0.68 0.76,-1.4 0.2,-0.76 0.2,-0.88 0.68,-1.72 0.84,-2 0.2,-1.08 0.68,-2.48 -0.08,-0.2 0,-0.8 l 0.52,-2.12 q 0.36,-0.6 0.36,-0.72 0,-0.16 0.48,-1.12 0,-0.16 0.24,-0.64 0.28,-0.44 1,-0.84 h 0.12 q 0.88,-0.08 1.52,0.24 0.08,0.16 0.08,0.56 0.08,0.4 0.16,1.44 v 0.4 l -0.16,0.88 q 0.32,1 0.08,2 z"
         style="font-family:'Caveat Brush';-inkscape-font-specification:'Caveat Brush'"
         id="path1176" />
      <path
         d="m 221.82046,322.24735 q 0,-0.36 -0.08,-0.84 v -0.28 q 0.04,-0.28 -0.04,-0.6 0,-0.4 0.08,-0.72 0,-0.8 0.2,-1.04 0,-0.2 0.56,-0.92 0.16,-0.16 0.6,-0.52 0.64,-0.2 0.88,-0.24 0.16,-0.16 1.08,0.12 0.4,0.04 1.24,0.28 0.28,0.08 0.72,0.64 -0.08,0.16 -0.28,1.2 -0.16,1 -0.12,1.64 0.24,-0.2 0.84,-0.84 0.6,-0.64 0.64,-0.68 1.04,-0.48 2.04,-0.68 1.44,-0.12 1.88,0.2 0.36,0.12 0.56,0.36 0.36,0.32 0.6,1.12 0.24,0.76 -0.04,0.96 -0.24,0.2 -1.6,0.32 -0.08,0 -0.56,0.32 l -2.08,1.64 q -0.64,0.32 -0.88,0.56 l -0.76,1.4 q -0.04,0.08 -0.08,1.04 -0.04,0.96 0,1.4 0.04,0.4 0,2.68 v 1.72 q 0,1.4 -0.04,1.6 -0.04,0.24 -0.32,0.8 -0.12,0.2 -0.76,0.2 -1.56,1.16 -2,-0.12 l -0.52,-0.32 q -0.32,-0.16 -0.4,-0.4 -0.32,-0.44 -0.32,-0.52 l -0.16,-0.56 -0.24,-0.48 q -0.12,-0.04 -0.2,-1.52 -0.08,-1.52 -0.08,-1.84 0,-0.36 -0.08,-0.76 0.28,-0.28 0.24,-0.96 0,-0.68 -0.08,-1.04 -0.08,-0.4 0,-0.48 0.08,-0.12 -0.04,-1.12 -0.12,-0.16 -0.04,-0.6 z"
         style="font-family:'Caveat Brush';-inkscape-font-specification:'Caveat Brush'"
         id="path1178" />
      <path
         d="m 235.98947,309.68735 q 0,-0.12 0.04,-0.28 v -1.28 q 0.04,-0.12 0.04,-0.32 0,-0.24 0.08,-0.4 0,-0.52 0.44,-0.96 0.16,-0.32 0.44,-0.4 0.52,-0.2 2,0.32 -0.04,-0.04 0.08,0.04 0.16,0.04 0.2,0.04 0.4,0.04 0.68,0.72 0,0.44 0.16,2.88 0.16,2.44 0.04,4 v 0.4 q -0.12,3.04 -0.12,5.12 -0.08,0.24 0,0.52 -0.08,0.48 -0.08,2.32 l 0.32,-0.44 0.2,-0.4 q 0,-0.12 0.16,-0.28 0.16,-0.2 0.2,-0.28 0.04,-0.12 0.12,-0.2 0.08,-0.12 0.12,-0.2 0.08,-0.12 0.44,-0.36 0,-0.12 0.44,-0.52 l 1.84,-2.32 1.04,-0.72 q 0.16,-0.24 0.8,-0.4 0.68,-0.2 1.24,-0.16 0.6,-0.36 1.76,0.4 0.6,0.56 0.04,1.4 -1,1.48 -1.2,1.72 l -1.72,2.4 -0.48,0.76 q -1.4,1.8 -1.76,2.16 -0.32,0.32 -0.28,0.56 0.52,0.52 0.88,0.68 0.16,0.2 0.28,0.36 0.16,0.12 0.16,0.16 l 1.92,1.92 q 1.48,1.6 2.2,2.64 l 1.84,2.04 q 0.68,0.4 0.68,0.84 0,0.44 -0.76,0.76 -0.24,0.24 -1.48,0.12 -0.84,0.16 -1.24,-0.04 -1.12,-0.04 -2.16,-0.76 -0.68,-0.52 -0.68,-0.76 -0.2,-0.28 -0.4,-0.48 -0.24,-0.32 -0.4,-0.6 -0.32,-0.16 -0.8,-1.04 -0.36,-0.24 -0.36,-0.28 0,-0.08 -0.24,-0.28 -0.24,-0.2 -0.32,-0.24 0,-0.16 -0.68,-1 -0.24,-0.12 -0.4,-0.32 -0.12,-0.24 -0.08,-0.24 l -0.76,-0.96 -0.32,-0.48 q 0,3.04 0.6,6.12 0.08,0.64 0.08,0.76 0.04,0.12 0.04,0.2 0.04,0.12 0.04,0.16 l -0.28,-0.12 q 0.12,0.08 0.24,0.44 0.12,0.36 0.08,0.48 -0.36,0.4 -0.48,0.52 -0.08,0.12 -0.52,0.16 -0.4,0.04 -0.44,-0.12 -0.72,-0.36 -0.84,-0.48 -0.24,-0.04 -0.96,-0.4 -0.04,-0.16 -0.12,-0.24 -0.36,-0.24 -0.56,-0.6 -0.16,-0.08 -0.36,-0.56 -0.36,-0.68 -0.36,-1.48 -0.08,-0.32 -0.12,-0.36 -0.04,-0.04 -0.04,-0.32 l -0.12,-1.04 q -0.12,-0.44 -0.04,-0.76 l -0.2,-0.64 -0.08,-1.4 0.08,-0.56 q -0.24,-0.36 -0.04,-1.04 v -0.24 q -0.04,-0.08 -0.08,-0.72 -0.04,-0.64 0,-0.76 0.04,-0.12 0.04,-0.28 -0.08,-0.56 -0.08,-1 v -0.44 q -0.2,-4 -0.2,-4.08 v -1.12 q -0.04,-0.28 0.04,-1.32 0.12,-1.04 0.08,-1.68 0,-0.64 0.08,-0.8 0,-0.36 0.08,-0.72 v -0.44 q 0.04,-0.12 0.08,-0.76 z"
         style="font-family:'Caveat Brush';-inkscape-font-specification:'Caveat Brush'"
         id="path1180" />
      <path
         d="m 251.99848,322.24735 q 0,-0.6 0.28,-1.32 0.32,-0.76 0.52,-0.96 0.08,-0.12 0.88,-1.28 l 0.68,-0.84 0.52,-0.32 q 0.28,-0.2 1.08,-0.2 h 0.08 q 1.16,-0.28 2.64,0.08 1.52,0.36 2.12,1.28 0.92,1.68 1.12,3.64 0.24,1.04 0.04,1.92 0,0.08 -0.28,0.72 -0.12,0.12 -0.8,0.28 -0.28,0.28 -0.92,0.28 -0.6,0 -0.64,-0.36 -0.12,-0.04 -0.4,-0.28 -0.24,-0.24 -0.24,-0.36 l -0.36,-0.52 q -0.36,-0.72 -0.28,-1.12 0.2,-1.04 0.12,-1.12 0,-0.6 -0.4,-1.2 -0.04,-0.04 -0.16,-0.04 -0.24,-0.08 -0.4,-0.36 -0.28,0.08 -0.6,0.44 -0.56,1.52 -0.68,2.2 -0.24,1.76 -0.24,2.32 v 1.84 q 0.08,1.44 0.32,1.76 0,0.16 0.16,0.56 0.04,0.64 1.04,2.08 0.2,0.56 0.64,0.56 0.56,0 1.52,-1.48 l 0.4,-0.6 q 0.56,-0.76 1.76,-0.6 0.52,0.08 0.52,0.6 0.04,0.36 -0.24,1.8 -0.24,0.24 -0.4,0.8 l -0.52,0.92 q -0.76,1.08 -1,1.08 -0.08,0.08 -1.04,0.28 l 1.08,1.68 q 0.84,1.8 0.96,2.6 0.12,0.84 -0.76,2.08 -0.72,1.12 -2.72,1.24 -1,0.12 -3.08,-0.76 -0.08,-0.08 -0.44,-0.36 -0.32,-0.24 -0.52,-0.44 -0.48,-0.48 -0.48,-1.4 0,-0.88 0.44,-1.56 0.48,-0.68 1.08,-0.68 0.8,0 0.8,0.8 0,0.4 -0.04,0.64 0.16,0.24 0.32,0.76 0.16,0.52 0.32,0.72 0.2,0.2 0.28,0.2 h 0.2 q 0.64,0 1.4,-0.6 0.2,-0.36 0.2,-1.36 0,-1 -0.56,-1.4 l -0.44,-0.88 q -0.28,-0.44 -0.88,-1 -0.56,-0.56 -0.8,-0.72 -0.76,-0.48 -1.08,-0.6 -0.32,-0.12 -0.52,-0.32 l -0.24,-0.72 q -0.52,0 -0.84,-0.52 0,-0.28 -0.48,-1.24 l -0.2,-0.6 -0.12,-0.72 v -0.72 l -0.48,-3.12 v -0.56 l 0.36,-1.36 q -0.04,-0.88 0.4,-1.56 z"
         style="font-family:'Caveat Brush';-inkscape-font-specification:'Caveat Brush'"
         id="path1182" />
      <path
         d="m 273.72752,321.24735 q 0.16,-0.6 -0.04,-1.52 -0.28,-0.24 -0.76,-0.24 -0.6,0 -1.08,1.12 -0.64,0.96 -0.96,2.12 h -0.04 q -0.44,1.68 -0.44,1.8 0.64,0.16 1.04,0.16 0.4,-0.04 0.92,-0.44 0.92,-0.88 1.36,-3 z m -0.12,5.76 -1.48,0.12 q -1.24,0 -1.96,-0.24 l 0.12,0.76 q 0.12,3.32 1.84,4.36 0.48,0.2 0.8,0.2 0.32,0 0.84,-0.32 0.16,-0.16 0.28,-0.44 0.04,-0.36 0.4,-0.32 1.64,-2.08 2.48,-1.64 0.84,0.56 0.84,0.88 0,0.16 -0.2,0.36 v 0.24 q 0,0.4 -0.52,1.44 -0.48,1.04 -1.04,1.76 -0.28,0.6 -0.72,0.84 -1.28,0.8 -2.72,0.64 -0.32,-0.04 -0.44,-0.16 -0.32,-0.08 -0.48,-0.04 l -0.32,-0.04 q -0.36,0 -0.6,-0.16 -0.4,-0.24 -0.56,-0.24 -1.04,-0.4 -1.28,-0.6 -0.2,-0.2 -0.36,-0.28 -0.16,-0.08 -0.76,-0.84 -0.52,-0.44 -0.6,-0.56 -0.24,-0.36 -0.44,-0.52 -0.16,-0.16 -0.2,-0.72 -0.16,-0.2 -0.16,-0.52 l -0.16,-0.32 q 0,-0.28 -0.24,-0.44 -0.24,-0.24 -0.24,-0.6 v -0.32 q -0.16,-0.08 -0.08,-0.48 v -1.04 l -0.04,-0.36 v -0.28 q -0.04,-0.16 0.08,-0.68 l -0.04,-0.36 q 0.04,-0.04 0.12,-0.64 0.16,-0.84 0.36,-1.04 v -0.36 q 0.04,-0.12 0.04,-0.32 0,-0.2 0.08,-0.44 0.12,-0.24 0.64,-1.8 l 0.64,-1.4 q 0.28,-0.6 0.88,-1.32 0.04,-0.2 0.32,-0.72 l 0.52,-0.48 q 0.24,-0.36 0.72,-0.52 0.56,-0.28 0.84,-0.28 l 1.12,-0.16 q 0.2,0.04 0.28,0.04 h 0.52 q 0.88,0.08 1.44,0.36 1.2,0.36 1.76,0.92 1.24,1.4 1.24,2.68 0,1.28 -0.4,2.2 -1,2.28 -1.44,2.88 -0.72,1.32 -1.72,1.32 z"
         style="font-family:'Caveat Brush';-inkscape-font-specification:'Caveat Brush'"
         id="path1184" />
      <path
         d="m 294.35751,323.24735 q 0.08,-0.08 0.92,-0.16 0.88,-0.12 2.04,-0.72 0.04,0 -0.04,-0.96 -0.12,-1.68 -0.2,-2.4 -0.08,-0.96 -0.16,-1.36 0,-0.76 -0.6,-3.16 l -1.76,5.96 q -0.56,2.48 -0.44,3.04 z m -5.4,1.16 0.24,-1.76 q 0,-0.52 0.16,-1.04 0,-0.68 0.68,-2.04 0,-0.08 0.36,-1.04 0,-0.08 0.76,-2.36 l 0.48,-1.16 q 0,-0.16 0.2,-0.6 0.2,-0.48 0.28,-0.92 0.12,-0.48 0.28,-0.92 0.56,-1.08 1,-1.84 0.84,-1.6 3.12,-1.44 l 1.28,0.12 q 1.2,0.32 1.84,0.68 0.92,0.36 1.24,0.8 0.32,0.4 0.28,1.36 0.04,0.48 0.24,4.16 0.2,3.68 0.2,3.72 l 0.2,1.72 q 0,0.24 0.88,5.76 l 0.88,2.8 q 0.8,2.24 0.84,2.36 0.08,0.08 0.36,0.84 0.44,1.32 -0.76,1.76 -1.08,0.16 -1.6,-0.2 -0.2,0 -0.92,-0.36 -0.08,-0.2 -0.48,-0.4 -0.36,-0.16 -0.48,-0.28 -0.44,-0.12 -0.8,-1.24 -0.12,-0.08 -0.44,-0.64 -0.28,-0.56 -0.16,-0.92 -0.28,-0.36 -0.28,-1.48 -0.36,-0.6 -0.36,-1.88 0,-1.28 -0.4,-2 -2.04,0.92 -4.36,1 -0.44,0 -0.44,0.16 0,0.36 -0.24,1.28 l -0.68,4.4 q 0.4,2.96 -0.72,3.12 -0.32,0 -1.08,0.16 -0.72,0.16 -1.2,-0.28 -0.92,-0.52 -1.32,-1.08 -0.36,-0.52 -0.32,-1.2 0.04,-0.56 0.2,-2.4 0.08,-0.08 0.04,-0.88 0,-0.84 0.12,-1.28 l 0.64,-2.48 q 0.12,-0.08 0.32,-1.2 -0.04,-0.08 -0.04,-0.4 z"
         style="font-family:'Caveat Brush';-inkscape-font-specification:'Caveat Brush'"
         id="path1186" />
      <path
         d="m 311.32648,329.32735 q 0.36,-0.84 0.76,-1.96 l 0.88,-2.24 0.36,-0.68 q -8.12,9.6 0.16,-0.2 l 1.04,-2.16 q 0.12,-0.12 0.2,-0.52 l 1.04,-1.56 0.8,-0.72 q 0.24,-0.12 0.52,-0.4 0.08,0.08 0.64,-0.16 0.36,0 1.44,0.12 l 0.8,0.28 1.8,1.08 q 0.56,0.56 0.48,1.2 -0.04,0.48 -0.44,2.64 -0.32,1.72 -0.92,3.96 -0.32,1.8 -0.2,2.6 0.12,0.8 0.12,0.92 0.08,0.24 0.2,0.68 0.16,0.44 0.08,0.48 0.28,0.04 0.28,0.4 0.32,0.84 0.2,1.12 -0.08,0.32 -0.52,0.68 -0.4,0.36 -1.48,0.36 -0.64,-0.08 -1.04,-0.08 -0.36,0 -0.92,-0.28 -1.16,-0.84 -1.32,-1.72 -0.2,-0.56 -0.24,-0.84 -0.04,-0.28 -0.04,-0.4 -0.2,-1.2 0.04,-2.48 0.04,-0.48 0.36,-1.96 0.32,-1.52 0.64,-2.4 0,-0.88 -0.04,-0.92 l -1.56,3.04 q -0.24,0.64 -0.44,0.96 -0.2,0.2 -0.2,0.48 -0.32,0.32 -0.6,1.28 0,0.28 -0.04,0.4 -0.04,0.12 -0.32,0.6 -0.24,0.44 -0.36,0.84 -0.08,0.4 -0.48,0.88 0,0.16 -0.52,1.64 -0.04,0.16 -0.84,0.28 l -0.76,-0.08 q -0.28,-0.08 -1.32,-0.4 -1.04,-0.32 -1.16,-0.32 -0.08,0 -0.16,-0.08 -0.68,-0.16 -0.84,-1.12 v -0.64 q 0.2,-0.24 0.04,-0.92 0.08,-0.4 0.12,-0.92 -0.12,-0.08 -0.04,-0.28 0.08,-1.28 0.08,-1.8 v -0.96 q 0.08,-1.32 0.2,-2.84 0.12,-1.52 0.12,-1.96 v -0.8 q -0.08,-0.2 -0.04,-0.92 -0.08,-0.76 -0.2,-0.92 -0.12,-0.2 -0.08,-0.56 l 0.28,-0.68 q 0.64,-0.52 2.16,-0.2 0.68,0.12 1.88,0.8 0.08,0.12 0.4,0.52 0.24,0 0.28,0.68 -0.04,0.36 -0.04,0.6 -0.04,0.04 -0.44,1.84 -0.88,5.56 -0.88,6.04 0,0.48 0.08,0.68 z"
         style="font-family:'Caveat Brush';-inkscape-font-specification:'Caveat Brush'"
         id="path1188" />
      <path
         d="m 327.65548,308.16735 q 0.04,-0.04 0.76,-0.12 1.16,-0.2 1.6,0.16 0.48,0.32 0.68,0.72 0.08,1.28 -0.36,3.32 -0.44,1.32 -0.76,1.96 l -0.4,0.6 q -0.12,0.32 -0.52,0.68 -0.4,0.36 -0.6,0.36 -0.16,-0.04 -0.6,-0.28 -0.4,-0.28 -0.48,-0.4 -0.04,-0.12 -0.08,-0.28 l -0.2,-0.8 -0.8,-1 q -0.24,-0.48 -0.24,-0.96 -0.12,-1.12 0.28,-1.72 0,-0.08 0.12,-0.4 0.2,-0.88 1.6,-1.84 z m -1.2,17.96 q 0,-0.36 0.12,-0.96 0.16,-0.64 0.08,-0.88 -0.04,-0.24 0,-1.36 0.12,-0.48 0.04,-1.08 -0.28,-0.88 -0.16,-1.28 0.12,-0.4 0.52,-0.88 0.4,-0.52 0.88,-0.72 0.48,-0.2 1.44,0.04 0.24,0.12 0.8,0.8 0.12,0.12 0.28,0.92 0.2,0.8 0.24,1.76 0.08,0.92 0.12,2.72 0.04,1.76 0.16,4.76 0.12,2.96 0.04,3.68 -0.04,0.72 -0.52,1.08 -0.44,0.4 -0.8,0.16 -0.32,-0.2 -0.68,-0.28 -0.64,0 -1.12,-0.52 -0.16,-0.04 -0.76,-0.36 -0.6,-0.36 -0.76,-1.28 -0.2,-0.4 -0.12,-2.6 v -1.44 l 0.2,-1.36 z"
         style="font-family:'Caveat Brush';-inkscape-font-specification:'Caveat Brush'"
         id="path1190" />
      <path
         d="m 336.26445,317.52735 h 0.08 q 0.52,-0.16 1.68,0.12 0.4,0.12 0.48,2.28 0.16,1.64 0.16,2.28 0,0.6 0.04,0.72 v 2.68 l 0.2,0.04 q 0,-0.04 0.08,-0.48 0.2,-1.12 0.44,-1.72 0.16,-0.16 0.16,-0.4 0.04,-0.24 0.24,-0.52 0.24,-1.12 1.2,-2.92 0.32,-0.76 0.6,-1.12 0.32,-0.4 0.92,-0.28 0.64,0.12 1.04,0.44 0.32,0.04 0.76,0.12 l 1.16,0.24 q 0.16,0.04 0.44,0.28 0.28,0.2 0.24,0.52 -0.04,0.32 -0.08,1.88 v 0.64 l -0.16,1.56 q 0,0.64 0.08,0.76 l 0.16,0.12 0.32,-1.84 q 0,-0.28 0.24,-0.52 l 0.48,-1.16 q 0,-0.12 0.24,-0.52 0.08,-0.28 0.36,-0.8 0.32,-0.52 0.8,-1 0,-0.32 0.72,-0.44 0.56,-0.6 1.84,-0.04 0.24,0 0.44,0.08 0,0.08 0.28,0.12 0.32,0.04 0.76,0.52 v 0.44 q 0,0.4 0.04,0.6 -0.04,0.28 0.04,0.72 v 0.48 q 0.04,0.32 0.2,2 v 0.44 q 0.12,0.24 0.08,0.52 0,0.24 0,0.52 0.12,0.12 0.2,0.68 0.08,0.52 -0.08,1.04 l 0.08,0.36 v 1.12 q 0.2,0.16 0.2,0.48 l 0.12,0.68 q 0,0.72 0.2,1.44 v 0.44 l 0.2,1.04 v 0.24 l -0.04,0.4 q 0,0.44 -0.48,0.64 -0.08,0.04 -0.24,0.12 -0.12,0.08 -0.44,0.08 l -0.84,-0.28 -0.4,-0.28 q -0.32,0.08 -0.84,-0.28 0,-0.36 -0.28,-0.64 -0.48,-0.16 -0.36,-0.64 0.04,-0.04 -0.2,-0.44 0.08,-0.08 -0.12,-0.88 0,-0.36 -0.08,-0.68 -0.04,-0.36 -0.08,-0.72 0,-0.36 -0.12,-0.64 0.04,0 0.04,-0.28 0,-0.28 -0.08,-0.52 v -0.92 l -0.2,-1.6 -0.6,1.84 q -0.6,1.56 -0.6,1.68 l -1.28,4 q -0.12,0.24 -0.48,0.56 -0.32,0.28 -0.56,0.28 -0.08,-0.12 -0.44,-0.12 -0.32,0 -0.8,0.2 -1.36,0.16 -1.56,-0.84 l -0.08,-0.92 0.04,-0.92 q -0.08,-0.12 -0.08,-0.56 l -0.04,-0.56 v -1.72 l -0.08,-2.04 v -1.96 q -1.16,3.16 -1.44,4.12 l -1.48,4.76 q -0.44,1.16 -1.6,1.24 l -0.44,0.08 q -0.88,0.2 -1.16,-0.28 l -0.4,-0.68 q -0.16,-0.88 -0.32,-1 -0.08,-0.56 -0.4,-1.16 l -0.2,-0.96 q 0,-0.12 -0.08,-0.36 v -0.72 q -0.12,-0.32 -0.2,-1.28 -0.08,-1 -0.04,-1.6 -0.16,-0.48 -0.08,-1.2 v -0.72 q -0.2,-0.92 -0.2,-2.8 v -0.56 q 0.2,-1.2 0.2,-1.6 0,-0.44 0.2,-0.64 0.2,-0.24 1.28,-0.88 z"
         style="font-family:'Caveat Brush';-inkscape-font-specification:'Caveat Brush'"
         id="path1192" />
      <path
         d="m 365.19343,321.24735 v -0.44 q 0,-0.44 -0.04,-0.44 l -0.24,-0.08 q -0.28,0 -0.44,-0.08 -0.28,0.08 -0.44,0.24 -0.52,0.32 -0.72,0.76 l -0.88,1.76 q -0.6,1.24 -0.68,3.2 1.04,0.44 1.52,-0.04 0.28,-0.24 0.48,-0.56 0.08,-0.28 0.32,-0.52 0.24,-0.28 0.48,-1.32 0.64,-1 0.64,-2.48 z m 3.56,0.56 v 0.44 q -0.08,2.44 -1.44,4.4 -0.2,0.28 -0.56,0.64 l -0.88,0.88 q -0.28,0.28 -0.72,0.52 l -0.88,0.24 q -0.12,-0.08 -0.68,-0.16 -0.44,0.16 -0.76,-0.08 -0.04,0 -0.44,-0.16 -0.36,-0.16 -0.92,-0.2 0.08,0.64 0.08,1.4 l 0.48,1.84 q 0.44,0.84 0.84,1.08 0.44,0.2 0.92,0.24 0.52,0 0.76,-0.12 0.28,-0.12 0.92,-0.36 l 0.8,-0.4 q 0.84,-0.48 1.44,0.24 0.32,0.36 0.28,0.96 -0.04,0.56 -0.48,1.04 -0.24,0.56 -1.24,1.04 -0.04,0 -0.36,0.16 -1.8,0.88 -4,0.24 l -0.76,-0.36 q -0.12,0 -0.24,-0.12 -0.48,-0.12 -1.04,-0.6 -0.56,-0.48 -0.8,-0.8 -0.2,-0.32 -0.28,-0.44 -0.08,-0.12 -0.28,-0.52 -0.68,-1.28 -1,-2.44 l -0.24,-1.16 q 0.08,-0.16 0.04,-0.92 v -0.64 q -0.36,-0.64 0.44,-2.92 0.64,-3.04 1.04,-3.56 l 0.52,-1.04 q 0,-0.04 0.48,-0.6 0.08,-0.2 0.92,-0.8 0.16,-0.24 0.48,-0.28 0.16,-0.16 0.52,-0.28 0.32,-0.28 0.96,-0.36 0.6,-0.2 1.84,-0.12 2.84,0.24 3.88,2.4 l 0.28,0.88 q 0,0.2 0.12,0.48 -0.04,0.08 -0.04,0.32 z"
         style="font-family:'Caveat Brush';-inkscape-font-specification:'Caveat Brush'"
         id="path1194" />
      <path
         d="m 388.30344,317.84735 -0.16,-0.68 q 0,-2.68 -0.6,-3.72 -0.08,-0.04 -0.12,-0.04 -0.2,0 -0.28,0.48 -0.48,0.96 -0.88,2.64 -0.16,0.16 -0.36,1.2 -0.6,2.68 -0.92,3.32 l -0.08,0.6 q -0.28,0.92 -0.04,1.2 0,-0.16 1.68,-0.52 1.68,-0.36 1.76,-0.4 0.08,-0.04 0.04,-0.4 0,-0.36 0.24,-1.12 0.08,-0.04 -0.12,-0.28 -0.16,-0.28 -0.12,-0.84 -0.08,-0.24 -0.08,-0.68 0.04,-0.44 0.04,-0.76 z m 4.16,0.28 0.08,0.6 q 0.24,0.08 0.16,0.32 -0.08,0.24 -0.04,0.68 0.12,1.6 0.4,2.44 0,0.48 0.16,1.24 0.2,0.72 0.16,0.76 -0.04,0.04 -0.04,0.32 v 0.4 q -0.24,-0.52 -0.04,0.8 0.16,0.32 0.24,1 0.12,0.68 0.48,2.4 0.76,3 0.76,3.32 0,0.28 -0.24,0.96 -0.24,0.64 -0.72,0.92 l -1.8,0.12 q -0.6,-0.16 -1.48,-0.92 -0.52,-0.52 -0.64,-1.16 l -0.48,-1.36 q -0.04,-0.24 -0.04,-0.72 -0.04,-0.04 -0.12,-0.52 0.08,-0.2 -0.2,-0.8 v -0.72 q 0.12,-0.2 -0.16,-0.76 l -0.2,-1.28 q 0.08,-0.16 -0.48,-0.68 -0.4,0.2 -1.04,0.32 h -1.28 q -0.76,0 -1.28,0.04 -0.28,0 -0.28,1.6 -0.04,0.12 -0.2,0.56 0,0.2 -0.16,0.64 -0.16,0.44 -0.16,0.76 0,0.28 -0.08,0.4 -0.2,0.4 -0.56,1.92 -0.36,1.48 -0.56,1.96 -0.16,0.48 -0.04,0.6 0.04,0.12 -0.12,0.4 -0.16,0.28 -0.36,0.4 -0.44,0 -0.96,-0.2 -0.52,-0.2 -1.24,-0.2 -0.52,-0.08 -0.92,-1.04 -0.08,-0.28 -0.12,-0.48 0.08,-0.12 0.12,-0.6 -0.28,-0.2 -0.28,-0.76 l 0.04,-0.56 q 0,-0.36 0.2,-0.68 -0.04,0 0.16,-0.68 -0.24,-0.16 0.28,-2.44 0,-0.56 0.36,-1.64 0.16,-0.72 0.16,-0.96 0.04,-0.36 0.08,-0.44 0.04,-0.12 0.08,-0.28 0.44,-1.2 0.48,-1.64 0.04,-0.48 0.64,-1.92 0.12,-0.24 0.12,-0.72 0,-0.48 0.12,-0.76 0.12,-0.28 0.2,-0.64 0.12,-0.36 0.32,-0.76 -0.12,-0.12 0.08,-0.8 0,-0.24 0.32,-1 0.32,-0.8 0.32,-1 0.04,-0.24 0.08,-0.32 0.08,-0.12 0.16,-0.36 0.08,-0.24 0.24,-0.52 0.16,-0.28 0.16,-0.48 0.04,-0.2 0.24,-0.68 0,-0.28 0.12,-0.72 0.12,-0.12 0.52,-0.76 0,-0.24 0.68,-0.76 0.72,-0.52 0.88,-0.72 l 2.08,-0.32 q 0.04,-0.32 0.48,-0.96 1.24,-0.6 2.52,-0.4 0.04,0 0.16,0.04 0.16,0.04 0.36,0.08 0.24,0.04 0.52,0.12 0.32,0.08 0.32,0.56 l -0.04,4.76 q 0.08,0.32 0.12,1.68 0.08,1.32 0.24,1.92 0,0.92 -0.04,1.08 z"
         style="font-family:'Caveat Brush';-inkscape-font-specification:'Caveat Brush'"
         id="path1196" />
      <path
         d="m 398.23241,319.48735 q -0.28,-1.44 0.6,-2 0.44,-0.24 0.68,-0.2 0.28,0 1.72,0.44 0.2,0 0.28,0.08 0.08,0 0.24,0.08 0.36,0 0.36,0.16 0.36,0.6 0.44,1.4 0.16,1.64 0.4,2.68 0,-0.04 0.04,-0.12 0.76,-0.96 0.8,-1.12 -0.08,-0.08 0.28,-0.44 0.28,-0.88 0.4,-1.08 0,-0.2 0.36,-0.64 0.28,-0.56 0.48,-0.72 0.2,-0.2 0.32,-0.32 0.6,-0.6 1.6,-0.44 0.12,0 0.44,-0.04 0.64,-0.08 0.76,0.12 1.24,0 0.96,3.04 -0.16,1.36 -0.48,1.56 -0.32,0.2 -1.24,0.44 -0.88,0.24 -1.24,0.4 -1.4,0.6 -1.8,1.84 -0.04,0.44 -0.24,0.92 -0.08,0.64 -0.12,0.76 0,0.12 0,0.48 0,0.8 -0.24,1.52 -0.12,0.76 -0.12,2.44 0.04,1.64 -0.08,2.32 -0.08,0.68 -0.12,0.68 0.04,0.2 0.04,0.28 v 0.24 q -0.12,0.32 -0.76,0.96 l -0.6,0.04 q -0.92,0 -1,-0.12 -0.4,-0.16 -0.6,-0.48 -0.24,-0.04 -0.24,-0.32 -0.36,-0.08 -0.44,-0.48 -0.44,-0.48 -0.44,-0.64 -0.44,-1.52 -0.32,-2.64 v -2.04 q 0.08,-0.24 0.08,-0.28 v -0.36 q 0.24,-0.24 0.08,-0.32 v -0.32 q 0.04,-0.04 0.04,-0.28 0.04,-0.24 0.08,-0.84 0.08,-0.52 -0.28,-3.52 -0.16,-0.16 -0.56,-1.64 0,-0.24 -0.16,-0.56 v -0.36 q -0.16,-0.48 -0.28,-0.48 -0.12,-0.04 -0.12,-0.08 z"
         style="font-family:'Caveat Brush';-inkscape-font-specification:'Caveat Brush'"
         id="path1198" />
      <path
         d="m 413.52139,340.76735 q -0.16,-0.16 -0.32,-0.56 -0.16,-0.36 -0.16,-1.04 0,-0.68 0.44,-1.36 0.48,-0.68 1.08,-0.68 0.8,0 0.8,0.8 0,0.4 -0.04,0.64 0.16,0.24 0.32,0.76 0.16,0.52 0.32,0.72 0.2,0.2 0.28,0.2 h 0.2 q 0.64,0 1.4,-0.6 0.2,-0.36 0.2,-1.36 0,-1 -0.56,-1.4 l -0.44,-0.88 q -0.32,-0.48 -0.72,-0.96 -2.16,-0.2 -3.64,-1.68 -0.48,-0.48 -0.48,-0.92 -0.24,-0.76 -0.16,-1 -0.12,-1.12 0,-1.68 0.24,-1.28 1.88,-1.32 0.6,0 0.76,0.72 0.52,2.04 0.96,2.68 0.48,0.64 1.52,0.6 1.32,-0.08 1.24,-1.48 -0.04,-1.4 -1.32,-2.6 -0.4,-0.48 -0.8,-0.72 -0.36,-0.28 -0.48,-0.4 -0.04,-0.12 -0.2,-0.24 -0.8,-0.64 -2.04,-2.12 -1.2,-1.48 -1.28,-2.76 -0.16,-2.28 1.08,-3.6 1.08,-1.32 2.96,-1.4 3.08,-0.12 4.56,1.52 1.52,1.64 1.6,3.24 0.12,1.6 -0.8,1.72 -1.32,0.04 -1.72,-0.36 -0.36,0.04 -0.92,-0.52 -0.24,-0.12 -0.64,-0.92 l -0.44,-1 q -0.32,-0.72 -0.8,-0.8 -0.6,0.24 -0.6,1.2 0.16,1.88 1.8,3.6 0,0 0.04,0.12 0.08,0.08 0.6,0.64 3.16,3.48 3.28,5.6 0,1.36 -0.56,1.8 -1.16,1.32 -2.68,1.84 l 1.04,1.6 q 0.84,1.8 0.96,2.6 0.12,0.84 -0.76,2.08 -0.72,1.12 -2.72,1.24 -1,0.12 -3.08,-0.76 -0.08,-0.08 -0.44,-0.36 -0.32,-0.24 -0.52,-0.44 z"
         style="font-family:'Caveat Brush';-inkscape-font-specification:'Caveat Brush'"
         id="path1200" />
      <path
         d="m 427.61041,308.96735 q 2.68,0 3.76,1.08 0,0.68 -0.92,2.76 -0.16,0.68 -0.52,1.08 l -0.52,0.52 q -0.2,0.12 -0.4,0.12 -1.44,0.36 -2.24,-0.56 -0.16,-0.24 -0.4,-0.36 -0.2,-0.12 -0.32,-0.72 -0.36,-0.52 -0.36,-0.8 -0.08,-2.48 1.8,-3.12 z m -0.32,9.44 q 0.4,-0.2 1.88,0.4 0.16,0.16 0.48,0.32 l 0.64,0.52 q 0.16,0.16 0.16,0.52 v 3.52 q 0,0.8 -0.08,1.44 v 0.24 q -0.12,1.64 0.2,7.4 0.12,1.12 -0.52,1.36 -0.68,0 -0.88,-0.2 -0.16,-0.08 -0.28,-0.08 h -0.28 l -0.24,0.08 q -0.12,0 -0.44,-0.16 -0.32,-0.2 -0.44,-0.4 -0.08,-0.2 -0.32,-0.24 -0.44,-0.16 -0.48,-0.6 -0.56,-1.08 -0.6,-1.28 0,-0.2 -0.12,-0.44 l -0.2,-3.48 q 0,-0.6 0.08,-0.92 v -0.96 q 0.04,-0.44 0.08,-1.6 0.04,-1.2 0.12,-1.92 -0.08,-1.04 -0.08,-1.4 0,-0.36 0.04,-0.52 -0.44,-0.44 0.04,-1.2 0.52,-0.4 1,-0.4 z"
         style="font-family:'Caveat Brush';-inkscape-font-specification:'Caveat Brush'"
         id="path1202" />
      <path
         d="m 434.8194,321.44735 q 0,-0.6 0.12,-1.68 0,-0.96 0.16,-1.16 0,-0.28 0.84,-0.4 0.24,0 0.92,0.16 0.16,0.12 0.48,0.16 0.84,0.28 1.12,1.16 v 0.84 q 0.12,0.72 0.12,2.64 0.08,0.6 0.04,0.96 -0.04,0.32 -0.04,0.4 0.04,0.08 0.04,0.56 0.04,0.48 0.24,1.96 0,2 0.16,2.32 0,0.24 0.08,0.48 v 0.52 q 0.04,0.08 0.04,0.6 0,0.52 0.2,0.88 0.24,0.52 0.44,0.16 l 0.64,-1.92 q 0.04,-0.08 0.32,-0.52 0,-0.36 0.08,-0.52 -0.12,-0.16 0.36,-0.84 0.08,-0.44 0.48,-0.92 v -0.24 q 0.84,-1.88 0.96,-2.08 0.32,-1.44 0.4,-1.72 0.08,-0.32 0.08,-0.36 l 0.08,-0.24 q 0,-0.16 0.08,-0.64 0.28,-0.44 0.28,-0.64 0,-0.2 0.24,-0.92 0.16,-0.12 0.16,-0.56 0.08,-0.76 1.56,-1.6 h 0.12 q 0.24,-0.04 0.48,-0.04 0.28,0 0.56,0.04 0.32,0.04 0.4,0.08 0.12,0 0.36,0.08 0.24,0.08 0.32,0.2 0.12,0.08 0.24,0.28 0.24,0.36 0.16,1 l -3.92,10.4 q -0.64,1.16 -0.72,1.84 l -0.44,0.6 q -0.16,0.8 -2,2.64 -1.04,0.6 -2.16,0.16 l -0.68,-0.2 -0.76,-0.36 q -0.12,0 -1.08,-1.24 -0.24,-0.16 -0.44,-0.52 -0.2,-0.4 -0.36,-0.64 -0.16,-0.24 -0.24,-0.48 l -0.48,-1.8 -0.12,-1.2 -0.16,-0.52 q 0,-3.32 0.08,-3.6 0,-2.64 0.2,-3.04 z"
         style="font-family:'Caveat Brush';-inkscape-font-specification:'Caveat Brush'"
         id="path1204" />
      <path
         d="m 452.62841,308.16735 q 0.04,-0.04 0.76,-0.12 1.16,-0.2 1.6,0.16 0.48,0.32 0.68,0.72 0.08,1.28 -0.36,3.32 -0.44,1.32 -0.76,1.96 l -0.4,0.6 q -0.12,0.32 -0.52,0.68 -0.4,0.36 -0.6,0.36 -0.16,-0.04 -0.6,-0.28 -0.4,-0.28 -0.48,-0.4 -0.04,-0.12 -0.08,-0.28 l -0.2,-0.8 -0.8,-1 q -0.24,-0.48 -0.24,-0.96 -0.12,-1.12 0.28,-1.72 0,-0.08 0.12,-0.4 0.2,-0.88 1.6,-1.84 z m -1.2,17.96 q 0,-0.36 0.12,-0.96 0.16,-0.64 0.08,-0.88 -0.04,-0.24 0,-1.36 0.12,-0.48 0.04,-1.08 -0.28,-0.88 -0.16,-1.28 0.12,-0.4 0.52,-0.88 0.4,-0.52 0.88,-0.72 0.48,-0.2 1.44,0.04 0.24,0.12 0.8,0.8 0.12,0.12 0.28,0.92 0.2,0.8 0.24,1.76 0.08,0.92 0.12,2.72 0.04,1.76 0.16,4.76 0.12,2.96 0.04,3.68 -0.04,0.72 -0.52,1.08 -0.44,0.4 -0.8,0.16 -0.32,-0.2 -0.68,-0.28 -0.64,0 -1.12,-0.52 -0.16,-0.04 -0.76,-0.36 -0.6,-0.36 -0.76,-1.28 -0.2,-0.4 -0.12,-2.6 v -1.44 l 0.2,-1.36 z"
         style="font-family:'Caveat Brush';-inkscape-font-specification:'Caveat Brush'"
         id="path1206" />
    </g>
  </g>
  <g
     inkscape:label="Layer 1"
     inkscape:groupmode="layer"
     id="layer1">
    <text
       xml:space="preserve"
       id="text3991"
       style="font-style:normal;font-weight:normal;font-size:40px;line-height:1.25;font-family:sans-serif;white-space:pre;shape-inside:url(#rect3993);fill:#000000;fill-opacity:1;stroke:none"
       transform="translate(-155.17222,-527.41921)" />
    <text
       xml:space="preserve"
       id="text6153"
       style="font-style:normal;font-weight:normal;font-size:40px;line-height:1.25;font-family:sans-serif;white-space:pre;shape-inside:url(#rect6155);fill:#000000;fill-opacity:1;stroke:none"
       transform="translate(-155.17222,-527.41921)" />
    <g
       aria-label="Türkçe Anime Arşivi"
       transform="matrix(6.4937568,0,0,6.4937568,-1141.5094,-1931.1755)"
       id="text11021"
       style="font-size:40px;line-height:1.25;letter-spacing:-0.230991px;word-spacing:-0.307988px;white-space:pre;shape-inside:url(#rect11023);fill:#ffffff">
      <path
         d="m 196.6825,312.40735 q -0.08,0.72 -0.08,1.48 0,1.44 -0.16,2.6 -0.16,1.16 -0.2,1.6 -0.04,0.4 -0.12,0.8 v 0.28 q 0,0.72 -0.32,1.44 l -0.12,1.8 -0.16,3.8 v 2 q 0,1.52 -0.16,1.64 l 0.04,1.04 v 0.44 l -0.04,0.48 q 0,0.16 -0.08,0.16 0.08,0.48 -0.4,1.04 -0.44,0.52 -1.12,0.68 l -0.72,0.12 q -0.16,0 -0.44,0.04 -0.28,0 -0.48,-0.08 -0.2,-0.08 -0.4,-0.2 -0.4,-0.24 -0.56,-0.92 -0.12,-0.2 -0.48,-2.44 0,-0.48 -0.08,-1.2 l 0.12,-0.96 v -0.76 q 0,-0.72 0.16,-1 -0.16,-0.24 0.2,-1.04 -0.28,-0.36 0.04,-1.6 -0.16,-0.52 0,-0.68 0.08,-0.24 0.08,-1.12 l 0.04,-0.4 q 0,-1.16 0.24,-2.12 -0.08,-0.12 0,-0.64 0.08,-0.52 0.12,-1.24 v -0.28 q 0.04,-0.6 0.04,-1.28 l 0.04,-0.36 q 0,-0.24 0.08,-0.96 0.12,-0.72 0.2,-1.52 h -0.08 q -4.24,1.16 -5.2,1.16 l -0.68,0.04 q -0.6,0 -1.24,-0.2 -0.32,-0.16 -0.48,-0.84 0,-1.32 0.56,-1.92 0.6,-0.6 2.2,-1.12 0.4,-0.04 4.96,-1.68 l 1.72,-0.4 q 0.48,-0.16 1.52,-0.16 1.04,0 1.72,-0.24 0.72,-0.28 1.56,-0.4 0.84,-0.16 1.76,-0.32 0.44,-0.16 1.6,0.08 0.44,0 1.4,0.92 l 0.24,0.56 q 0,0.24 0.12,0.36 0.16,1.08 -0.48,1.4 -0.24,0.12 -0.84,0.32 -0.8,0 -4,0.8 -0.16,0 -1.6,0.24 l -0.04,0.52 z"
         style="font-family:'Caveat Brush';-inkscape-font-specification:'Caveat Brush'"
         id="path1121" />
      <path
         d="m 217.17148,309.40735 q 1.4,0 1.76,1.52 0,1.36 -0.84,2.2 -0.84,0.8 -1.6,0.8 -0.72,0 -1.84,-0.68 -1.08,-0.68 -1.08,-1.48 0,-2 1.72,-2.4 0.52,-0.04 1.48,0.12 0,-0.08 0.4,-0.08 z m -8.12,4.24 q -0.92,0 -1.84,-0.56 -0.92,-0.56 -0.92,-1.76 0,-2.2 2,-2.56 1.96,0.68 2.2,0.92 l 0.6,1.36 q -0.12,0.84 -0.84,1.72 -0.72,0.88 -1.2,0.88 z m 8,9.32 0.04,0.76 q 0,0.12 0.24,2.52 v 0.48 q 0,0.96 0.32,2.88 0,0.84 0.84,2.92 0.2,0.12 0.28,0.56 l -0.04,0.4 q 0.08,0.2 -0.2,0.44 0,0.28 -0.76,0.28 -0.76,0 -0.96,0.08 -0.2,0.08 -0.64,-0.08 -0.16,0.08 -0.96,-0.32 -0.36,-0.08 -0.56,-0.72 l -0.32,-0.76 q 0,-0.72 -0.4,-1.28 0,-0.2 -0.2,-0.72 -0.16,-0.52 -0.24,-0.56 -0.4,1.6 -1,2.48 0,0.2 -0.24,0.48 l -0.4,0.76 q 0,0.08 -0.36,0.44 -0.24,0.52 -1.08,0.52 -0.76,0 -1.84,-0.4 -0.28,-0.04 -1.12,-0.36 -0.24,0.04 -0.76,-0.12 -0.48,-0.2 -0.56,-0.2 -0.12,-0.12 -0.56,-0.4 l -0.68,-0.72 q -0.04,-0.04 -0.16,-0.36 -0.08,-0.36 -0.04,-0.48 0.04,-0.16 0,-0.44 -0.04,-0.28 0.04,-0.56 0,-0.8 0.16,-1.76 -0.04,-0.12 -0.04,-0.28 0,-0.16 0.16,-0.6 -0.04,-0.2 -0.04,-0.28 l 0.2,-1.56 q 0,-0.56 0.04,-0.8 v -0.6 q 0.04,-0.16 0.04,-0.44 l 0.2,-1.92 q 0,-0.44 0.04,-0.56 v -0.4 q 0.08,-0.08 0.08,-0.64 l 0.36,-1.12 0.28,-0.48 q 0.04,-0.16 0.44,-0.36 0.64,-0.4 1.84,-0.4 0.48,0.08 1.04,0.4 0.12,-0.04 0.56,0.16 0.8,0.36 0.08,2.04 -0.16,1.08 -0.16,1.12 -0.16,0.32 -0.16,0.52 -0.24,1.28 -0.24,1.36 0.16,-0.16 -0.12,0.48 l -0.16,1.48 q -0.28,0.96 -0.24,2.12 l -0.16,0.52 q 0.04,0.2 -0.04,1.24 0.08,0.12 0.08,0.28 l 0.04,0.32 q -0.04,0.12 0.04,0.24 0.08,0.08 0.44,0.08 0.4,-0.04 0.68,-0.2 0.56,-0.68 0.76,-1.4 0.2,-0.76 0.2,-0.88 0.68,-1.72 0.84,-2 0.2,-1.08 0.68,-2.48 -0.08,-0.2 0,-0.8 l 0.52,-2.12 q 0.36,-0.6 0.36,-0.72 0,-0.16 0.48,-1.12 0,-0.16 0.24,-0.64 0.28,-0.44 1,-0.84 h 0.12 q 0.88,-0.08 1.52,0.24 0.08,0.16 0.08,0.56 0.08,0.4 0.16,1.44 v 0.4 l -0.16,0.88 q 0.32,1 0.08,2 z"
         style="font-family:'Caveat Brush';-inkscape-font-specification:'Caveat Brush'"
         id="path1123" />
      <path
         d="m 221.82046,322.24735 q 0,-0.36 -0.08,-0.84 v -0.28 q 0.04,-0.28 -0.04,-0.6 0,-0.4 0.08,-0.72 0,-0.8 0.2,-1.04 0,-0.2 0.56,-0.92 0.16,-0.16 0.6,-0.52 0.64,-0.2 0.88,-0.24 0.16,-0.16 1.08,0.12 0.4,0.04 1.24,0.28 0.28,0.08 0.72,0.64 -0.08,0.16 -0.28,1.2 -0.16,1 -0.12,1.64 0.24,-0.2 0.84,-0.84 0.6,-0.64 0.64,-0.68 1.04,-0.48 2.04,-0.68 1.44,-0.12 1.88,0.2 0.36,0.12 0.56,0.36 0.36,0.32 0.6,1.12 0.24,0.76 -0.04,0.96 -0.24,0.2 -1.6,0.32 -0.08,0 -0.56,0.32 l -2.08,1.64 q -0.64,0.32 -0.88,0.56 l -0.76,1.4 q -0.04,0.08 -0.08,1.04 -0.04,0.96 0,1.4 0.04,0.4 0,2.68 v 1.72 q 0,1.4 -0.04,1.6 -0.04,0.24 -0.32,0.8 -0.12,0.2 -0.76,0.2 -1.56,1.16 -2,-0.12 l -0.52,-0.32 q -0.32,-0.16 -0.4,-0.4 -0.32,-0.44 -0.32,-0.52 l -0.16,-0.56 -0.24,-0.48 q -0.12,-0.04 -0.2,-1.52 -0.08,-1.52 -0.08,-1.84 0,-0.36 -0.08,-0.76 0.28,-0.28 0.24,-0.96 0,-0.68 -0.08,-1.04 -0.08,-0.4 0,-0.48 0.08,-0.12 -0.04,-1.12 -0.12,-0.16 -0.04,-0.6 z"
         style="font-family:'Caveat Brush';-inkscape-font-specification:'Caveat Brush'"
         id="path1125" />
      <path
         d="m 235.98947,309.68735 q 0,-0.12 0.04,-0.28 v -1.28 q 0.04,-0.12 0.04,-0.32 0,-0.24 0.08,-0.4 0,-0.52 0.44,-0.96 0.16,-0.32 0.44,-0.4 0.52,-0.2 2,0.32 -0.04,-0.04 0.08,0.04 0.16,0.04 0.2,0.04 0.4,0.04 0.68,0.72 0,0.44 0.16,2.88 0.16,2.44 0.04,4 v 0.4 q -0.12,3.04 -0.12,5.12 -0.08,0.24 0,0.52 -0.08,0.48 -0.08,2.32 l 0.32,-0.44 0.2,-0.4 q 0,-0.12 0.16,-0.28 0.16,-0.2 0.2,-0.28 0.04,-0.12 0.12,-0.2 0.08,-0.12 0.12,-0.2 0.08,-0.12 0.44,-0.36 0,-0.12 0.44,-0.52 l 1.84,-2.32 1.04,-0.72 q 0.16,-0.24 0.8,-0.4 0.68,-0.2 1.24,-0.16 0.6,-0.36 1.76,0.4 0.6,0.56 0.04,1.4 -1,1.48 -1.2,1.72 l -1.72,2.4 -0.48,0.76 q -1.4,1.8 -1.76,2.16 -0.32,0.32 -0.28,0.56 0.52,0.52 0.88,0.68 0.16,0.2 0.28,0.36 0.16,0.12 0.16,0.16 l 1.92,1.92 q 1.48,1.6 2.2,2.64 l 1.84,2.04 q 0.68,0.4 0.68,0.84 0,0.44 -0.76,0.76 -0.24,0.24 -1.48,0.12 -0.84,0.16 -1.24,-0.04 -1.12,-0.04 -2.16,-0.76 -0.68,-0.52 -0.68,-0.76 -0.2,-0.28 -0.4,-0.48 -0.24,-0.32 -0.4,-0.6 -0.32,-0.16 -0.8,-1.04 -0.36,-0.24 -0.36,-0.28 0,-0.08 -0.24,-0.28 -0.24,-0.2 -0.32,-0.24 0,-0.16 -0.68,-1 -0.24,-0.12 -0.4,-0.32 -0.12,-0.24 -0.08,-0.24 l -0.76,-0.96 -0.32,-0.48 q 0,3.04 0.6,6.12 0.08,0.64 0.08,0.76 0.04,0.12 0.04,0.2 0.04,0.12 0.04,0.16 l -0.28,-0.12 q 0.12,0.08 0.24,0.44 0.12,0.36 0.08,0.48 -0.36,0.4 -0.48,0.52 -0.08,0.12 -0.52,0.16 -0.4,0.04 -0.44,-0.12 -0.72,-0.36 -0.84,-0.48 -0.24,-0.04 -0.96,-0.4 -0.04,-0.16 -0.12,-0.24 -0.36,-0.24 -0.56,-0.6 -0.16,-0.08 -0.36,-0.56 -0.36,-0.68 -0.36,-1.48 -0.08,-0.32 -0.12,-0.36 -0.04,-0.04 -0.04,-0.32 l -0.12,-1.04 q -0.12,-0.44 -0.04,-0.76 l -0.2,-0.64 -0.08,-1.4 0.08,-0.56 q -0.24,-0.36 -0.04,-1.04 v -0.24 q -0.04,-0.08 -0.08,-0.72 -0.04,-0.64 0,-0.76 0.04,-0.12 0.04,-0.28 -0.08,-0.56 -0.08,-1 v -0.44 q -0.2,-4 -0.2,-4.08 v -1.12 q -0.04,-0.28 0.04,-1.32 0.12,-1.04 0.08,-1.68 0,-0.64 0.08,-0.8 0,-0.36 0.08,-0.72 v -0.44 q 0.04,-0.12 0.08,-0.76 z"
         style="font-family:'Caveat Brush';-inkscape-font-specification:'Caveat Brush'"
         id="path1127" />
      <path
         d="m 251.99848,322.24735 q 0,-0.6 0.28,-1.32 0.32,-0.76 0.52,-0.96 0.08,-0.12 0.88,-1.28 l 0.68,-0.84 0.52,-0.32 q 0.28,-0.2 1.08,-0.2 h 0.08 q 1.16,-0.28 2.64,0.08 1.52,0.36 2.12,1.28 0.92,1.68 1.12,3.64 0.24,1.04 0.04,1.92 0,0.08 -0.28,0.72 -0.12,0.12 -0.8,0.28 -0.28,0.28 -0.92,0.28 -0.6,0 -0.64,-0.36 -0.12,-0.04 -0.4,-0.28 -0.24,-0.24 -0.24,-0.36 l -0.36,-0.52 q -0.36,-0.72 -0.28,-1.12 0.2,-1.04 0.12,-1.12 0,-0.6 -0.4,-1.2 -0.04,-0.04 -0.16,-0.04 -0.24,-0.08 -0.4,-0.36 -0.28,0.08 -0.6,0.44 -0.56,1.52 -0.68,2.2 -0.24,1.76 -0.24,2.32 v 1.84 q 0.08,1.44 0.32,1.76 0,0.16 0.16,0.56 0.04,0.64 1.04,2.08 0.2,0.56 0.64,0.56 0.56,0 1.52,-1.48 l 0.4,-0.6 q 0.56,-0.76 1.76,-0.6 0.52,0.08 0.52,0.6 0.04,0.36 -0.24,1.8 -0.24,0.24 -0.4,0.8 l -0.52,0.92 q -0.76,1.08 -1,1.08 -0.08,0.08 -1.04,0.28 l 1.08,1.68 q 0.84,1.8 0.96,2.6 0.12,0.84 -0.76,2.08 -0.72,1.12 -2.72,1.24 -1,0.12 -3.08,-0.76 -0.08,-0.08 -0.44,-0.36 -0.32,-0.24 -0.52,-0.44 -0.48,-0.48 -0.48,-1.4 0,-0.88 0.44,-1.56 0.48,-0.68 1.08,-0.68 0.8,0 0.8,0.8 0,0.4 -0.04,0.64 0.16,0.24 0.32,0.76 0.16,0.52 0.32,0.72 0.2,0.2 0.28,0.2 h 0.2 q 0.64,0 1.4,-0.6 0.2,-0.36 0.2,-1.36 0,-1 -0.56,-1.4 l -0.44,-0.88 q -0.28,-0.44 -0.88,-1 -0.56,-0.56 -0.8,-0.72 -0.76,-0.48 -1.08,-0.6 -0.32,-0.12 -0.52,-0.32 l -0.24,-0.72 q -0.52,0 -0.84,-0.52 0,-0.28 -0.48,-1.24 l -0.2,-0.6 -0.12,-0.72 v -0.72 l -0.48,-3.12 v -0.56 l 0.36,-1.36 q -0.04,-0.88 0.4,-1.56 z"
         style="font-family:'Caveat Brush';-inkscape-font-specification:'Caveat Brush'"
         id="path1129" />
      <path
         d="m 273.72752,321.24735 q 0.16,-0.6 -0.04,-1.52 -0.28,-0.24 -0.76,-0.24 -0.6,0 -1.08,1.12 -0.64,0.96 -0.96,2.12 h -0.04 q -0.44,1.68 -0.44,1.8 0.64,0.16 1.04,0.16 0.4,-0.04 0.92,-0.44 0.92,-0.88 1.36,-3 z m -0.12,5.76 -1.48,0.12 q -1.24,0 -1.96,-0.24 l 0.12,0.76 q 0.12,3.32 1.84,4.36 0.48,0.2 0.8,0.2 0.32,0 0.84,-0.32 0.16,-0.16 0.28,-0.44 0.04,-0.36 0.4,-0.32 1.64,-2.08 2.48,-1.64 0.84,0.56 0.84,0.88 0,0.16 -0.2,0.36 v 0.24 q 0,0.4 -0.52,1.44 -0.48,1.04 -1.04,1.76 -0.28,0.6 -0.72,0.84 -1.28,0.8 -2.72,0.64 -0.32,-0.04 -0.44,-0.16 -0.32,-0.08 -0.48,-0.04 l -0.32,-0.04 q -0.36,0 -0.6,-0.16 -0.4,-0.24 -0.56,-0.24 -1.04,-0.4 -1.28,-0.6 -0.2,-0.2 -0.36,-0.28 -0.16,-0.08 -0.76,-0.84 -0.52,-0.44 -0.6,-0.56 -0.24,-0.36 -0.44,-0.52 -0.16,-0.16 -0.2,-0.72 -0.16,-0.2 -0.16,-0.52 l -0.16,-0.32 q 0,-0.28 -0.24,-0.44 -0.24,-0.24 -0.24,-0.6 v -0.32 q -0.16,-0.08 -0.08,-0.48 v -1.04 l -0.04,-0.36 v -0.28 q -0.04,-0.16 0.08,-0.68 l -0.04,-0.36 q 0.04,-0.04 0.12,-0.64 0.16,-0.84 0.36,-1.04 v -0.36 q 0.04,-0.12 0.04,-0.32 0,-0.2 0.08,-0.44 0.12,-0.24 0.64,-1.8 l 0.64,-1.4 q 0.28,-0.6 0.88,-1.32 0.04,-0.2 0.32,-0.72 l 0.52,-0.48 q 0.24,-0.36 0.72,-0.52 0.56,-0.28 0.84,-0.28 l 1.12,-0.16 q 0.2,0.04 0.28,0.04 h 0.52 q 0.88,0.08 1.44,0.36 1.2,0.36 1.76,0.92 1.24,1.4 1.24,2.68 0,1.28 -0.4,2.2 -1,2.28 -1.44,2.88 -0.72,1.32 -1.72,1.32 z"
         style="font-family:'Caveat Brush';-inkscape-font-specification:'Caveat Brush'"
         id="path1131" />
      <path
         d="m 294.35751,323.24735 q 0.08,-0.08 0.92,-0.16 0.88,-0.12 2.04,-0.72 0.04,0 -0.04,-0.96 -0.12,-1.68 -0.2,-2.4 -0.08,-0.96 -0.16,-1.36 0,-0.76 -0.6,-3.16 l -1.76,5.96 q -0.56,2.48 -0.44,3.04 z m -5.4,1.16 0.24,-1.76 q 0,-0.52 0.16,-1.04 0,-0.68 0.68,-2.04 0,-0.08 0.36,-1.04 0,-0.08 0.76,-2.36 l 0.48,-1.16 q 0,-0.16 0.2,-0.6 0.2,-0.48 0.28,-0.92 0.12,-0.48 0.28,-0.92 0.56,-1.08 1,-1.84 0.84,-1.6 3.12,-1.44 l 1.28,0.12 q 1.2,0.32 1.84,0.68 0.92,0.36 1.24,0.8 0.32,0.4 0.28,1.36 0.04,0.48 0.24,4.16 0.2,3.68 0.2,3.72 l 0.2,1.72 q 0,0.24 0.88,5.76 l 0.88,2.8 q 0.8,2.24 0.84,2.36 0.08,0.08 0.36,0.84 0.44,1.32 -0.76,1.76 -1.08,0.16 -1.6,-0.2 -0.2,0 -0.92,-0.36 -0.08,-0.2 -0.48,-0.4 -0.36,-0.16 -0.48,-0.28 -0.44,-0.12 -0.8,-1.24 -0.12,-0.08 -0.44,-0.64 -0.28,-0.56 -0.16,-0.92 -0.28,-0.36 -0.28,-1.48 -0.36,-0.6 -0.36,-1.88 0,-1.28 -0.4,-2 -2.04,0.92 -4.36,1 -0.44,0 -0.44,0.16 0,0.36 -0.24,1.28 l -0.68,4.4 q 0.4,2.96 -0.72,3.12 -0.32,0 -1.08,0.16 -0.72,0.16 -1.2,-0.28 -0.92,-0.52 -1.32,-1.08 -0.36,-0.52 -0.32,-1.2 0.04,-0.56 0.2,-2.4 0.08,-0.08 0.04,-0.88 0,-0.84 0.12,-1.28 l 0.64,-2.48 q 0.12,-0.08 0.32,-1.2 -0.04,-0.08 -0.04,-0.4 z"
         style="font-family:'Caveat Brush';-inkscape-font-specification:'Caveat Brush'"
         id="path1133" />
      <path
         d="m 311.32648,329.32735 q 0.36,-0.84 0.76,-1.96 l 0.88,-2.24 0.36,-0.68 q -8.12,9.6 0.16,-0.2 l 1.04,-2.16 q 0.12,-0.12 0.2,-0.52 l 1.04,-1.56 0.8,-0.72 q 0.24,-0.12 0.52,-0.4 0.08,0.08 0.64,-0.16 0.36,0 1.44,0.12 l 0.8,0.28 1.8,1.08 q 0.56,0.56 0.48,1.2 -0.04,0.48 -0.44,2.64 -0.32,1.72 -0.92,3.96 -0.32,1.8 -0.2,2.6 0.12,0.8 0.12,0.92 0.08,0.24 0.2,0.68 0.16,0.44 0.08,0.48 0.28,0.04 0.28,0.4 0.32,0.84 0.2,1.12 -0.08,0.32 -0.52,0.68 -0.4,0.36 -1.48,0.36 -0.64,-0.08 -1.04,-0.08 -0.36,0 -0.92,-0.28 -1.16,-0.84 -1.32,-1.72 -0.2,-0.56 -0.24,-0.84 -0.04,-0.28 -0.04,-0.4 -0.2,-1.2 0.04,-2.48 0.04,-0.48 0.36,-1.96 0.32,-1.52 0.64,-2.4 0,-0.88 -0.04,-0.92 l -1.56,3.04 q -0.24,0.64 -0.44,0.96 -0.2,0.2 -0.2,0.48 -0.32,0.32 -0.6,1.28 0,0.28 -0.04,0.4 -0.04,0.12 -0.32,0.6 -0.24,0.44 -0.36,0.84 -0.08,0.4 -0.48,0.88 0,0.16 -0.52,1.64 -0.04,0.16 -0.84,0.28 l -0.76,-0.08 q -0.28,-0.08 -1.32,-0.4 -1.04,-0.32 -1.16,-0.32 -0.08,0 -0.16,-0.08 -0.68,-0.16 -0.84,-1.12 v -0.64 q 0.2,-0.24 0.04,-0.92 0.08,-0.4 0.12,-0.92 -0.12,-0.08 -0.04,-0.28 0.08,-1.28 0.08,-1.8 v -0.96 q 0.08,-1.32 0.2,-2.84 0.12,-1.52 0.12,-1.96 v -0.8 q -0.08,-0.2 -0.04,-0.92 -0.08,-0.76 -0.2,-0.92 -0.12,-0.2 -0.08,-0.56 l 0.28,-0.68 q 0.64,-0.52 2.16,-0.2 0.68,0.12 1.88,0.8 0.08,0.12 0.4,0.52 0.24,0 0.28,0.68 -0.04,0.36 -0.04,0.6 -0.04,0.04 -0.44,1.84 -0.88,5.56 -0.88,6.04 0,0.48 0.08,0.68 z"
         style="font-family:'Caveat Brush';-inkscape-font-specification:'Caveat Brush'"
         id="path1135" />
      <path
         d="m 327.65548,308.16735 q 0.04,-0.04 0.76,-0.12 1.16,-0.2 1.6,0.16 0.48,0.32 0.68,0.72 0.08,1.28 -0.36,3.32 -0.44,1.32 -0.76,1.96 l -0.4,0.6 q -0.12,0.32 -0.52,0.68 -0.4,0.36 -0.6,0.36 -0.16,-0.04 -0.6,-0.28 -0.4,-0.28 -0.48,-0.4 -0.04,-0.12 -0.08,-0.28 l -0.2,-0.8 -0.8,-1 q -0.24,-0.48 -0.24,-0.96 -0.12,-1.12 0.28,-1.72 0,-0.08 0.12,-0.4 0.2,-0.88 1.6,-1.84 z m -1.2,17.96 q 0,-0.36 0.12,-0.96 0.16,-0.64 0.08,-0.88 -0.04,-0.24 0,-1.36 0.12,-0.48 0.04,-1.08 -0.28,-0.88 -0.16,-1.28 0.12,-0.4 0.52,-0.88 0.4,-0.52 0.88,-0.72 0.48,-0.2 1.44,0.04 0.24,0.12 0.8,0.8 0.12,0.12 0.28,0.92 0.2,0.8 0.24,1.76 0.08,0.92 0.12,2.72 0.04,1.76 0.16,4.76 0.12,2.96 0.04,3.68 -0.04,0.72 -0.52,1.08 -0.44,0.4 -0.8,0.16 -0.32,-0.2 -0.68,-0.28 -0.64,0 -1.12,-0.52 -0.16,-0.04 -0.76,-0.36 -0.6,-0.36 -0.76,-1.28 -0.2,-0.4 -0.12,-2.6 v -1.44 l 0.2,-1.36 z"
         style="font-family:'Caveat Brush';-inkscape-font-specification:'Caveat Brush'"
         id="path1137" />
      <path
         d="m 336.26445,317.52735 h 0.08 q 0.52,-0.16 1.68,0.12 0.4,0.12 0.48,2.28 0.16,1.64 0.16,2.28 0,0.6 0.04,0.72 v 2.68 l 0.2,0.04 q 0,-0.04 0.08,-0.48 0.2,-1.12 0.44,-1.72 0.16,-0.16 0.16,-0.4 0.04,-0.24 0.24,-0.52 0.24,-1.12 1.2,-2.92 0.32,-0.76 0.6,-1.12 0.32,-0.4 0.92,-0.28 0.64,0.12 1.04,0.44 0.32,0.04 0.76,0.12 l 1.16,0.24 q 0.16,0.04 0.44,0.28 0.28,0.2 0.24,0.52 -0.04,0.32 -0.08,1.88 v 0.64 l -0.16,1.56 q 0,0.64 0.08,0.76 l 0.16,0.12 0.32,-1.84 q 0,-0.28 0.24,-0.52 l 0.48,-1.16 q 0,-0.12 0.24,-0.52 0.08,-0.28 0.36,-0.8 0.32,-0.52 0.8,-1 0,-0.32 0.72,-0.44 0.56,-0.6 1.84,-0.04 0.24,0 0.44,0.08 0,0.08 0.28,0.12 0.32,0.04 0.76,0.52 v 0.44 q 0,0.4 0.04,0.6 -0.04,0.28 0.04,0.72 v 0.48 q 0.04,0.32 0.2,2 v 0.44 q 0.12,0.24 0.08,0.52 0,0.24 0,0.52 0.12,0.12 0.2,0.68 0.08,0.52 -0.08,1.04 l 0.08,0.36 v 1.12 q 0.2,0.16 0.2,0.48 l 0.12,0.68 q 0,0.72 0.2,1.44 v 0.44 l 0.2,1.04 v 0.24 l -0.04,0.4 q 0,0.44 -0.48,0.64 -0.08,0.04 -0.24,0.12 -0.12,0.08 -0.44,0.08 l -0.84,-0.28 -0.4,-0.28 q -0.32,0.08 -0.84,-0.28 0,-0.36 -0.28,-0.64 -0.48,-0.16 -0.36,-0.64 0.04,-0.04 -0.2,-0.44 0.08,-0.08 -0.12,-0.88 0,-0.36 -0.08,-0.68 -0.04,-0.36 -0.08,-0.72 0,-0.36 -0.12,-0.64 0.04,0 0.04,-0.28 0,-0.28 -0.08,-0.52 v -0.92 l -0.2,-1.6 -0.6,1.84 q -0.6,1.56 -0.6,1.68 l -1.28,4 q -0.12,0.24 -0.48,0.56 -0.32,0.28 -0.56,0.28 -0.08,-0.12 -0.44,-0.12 -0.32,0 -0.8,0.2 -1.36,0.16 -1.56,-0.84 l -0.08,-0.92 0.04,-0.92 q -0.08,-0.12 -0.08,-0.56 l -0.04,-0.56 v -1.72 l -0.08,-2.04 v -1.96 q -1.16,3.16 -1.44,4.12 l -1.48,4.76 q -0.44,1.16 -1.6,1.24 l -0.44,0.08 q -0.88,0.2 -1.16,-0.28 l -0.4,-0.68 q -0.16,-0.88 -0.32,-1 -0.08,-0.56 -0.4,-1.16 l -0.2,-0.96 q 0,-0.12 -0.08,-0.36 v -0.72 q -0.12,-0.32 -0.2,-1.28 -0.08,-1 -0.04,-1.6 -0.16,-0.48 -0.08,-1.2 v -0.72 q -0.2,-0.92 -0.2,-2.8 v -0.56 q 0.2,-1.2 0.2,-1.6 0,-0.44 0.2,-0.64 0.2,-0.24 1.28,-0.88 z"
         style="font-family:'Caveat Brush';-inkscape-font-specification:'Caveat Brush'"
         id="path1139" />
      <path
         d="m 365.19343,321.24735 v -0.44 q 0,-0.44 -0.04,-0.44 l -0.24,-0.08 q -0.28,0 -0.44,-0.08 -0.28,0.08 -0.44,0.24 -0.52,0.32 -0.72,0.76 l -0.88,1.76 q -0.6,1.24 -0.68,3.2 1.04,0.44 1.52,-0.04 0.28,-0.24 0.48,-0.56 0.08,-0.28 0.32,-0.52 0.24,-0.28 0.48,-1.32 0.64,-1 0.64,-2.48 z m 3.56,0.56 v 0.44 q -0.08,2.44 -1.44,4.4 -0.2,0.28 -0.56,0.64 l -0.88,0.88 q -0.28,0.28 -0.72,0.52 l -0.88,0.24 q -0.12,-0.08 -0.68,-0.16 -0.44,0.16 -0.76,-0.08 -0.04,0 -0.44,-0.16 -0.36,-0.16 -0.92,-0.2 0.08,0.64 0.08,1.4 l 0.48,1.84 q 0.44,0.84 0.84,1.08 0.44,0.2 0.92,0.24 0.52,0 0.76,-0.12 0.28,-0.12 0.92,-0.36 l 0.8,-0.4 q 0.84,-0.48 1.44,0.24 0.32,0.36 0.28,0.96 -0.04,0.56 -0.48,1.04 -0.24,0.56 -1.24,1.04 -0.04,0 -0.36,0.16 -1.8,0.88 -4,0.24 l -0.76,-0.36 q -0.12,0 -0.24,-0.12 -0.48,-0.12 -1.04,-0.6 -0.56,-0.48 -0.8,-0.8 -0.2,-0.32 -0.28,-0.44 -0.08,-0.12 -0.28,-0.52 -0.68,-1.28 -1,-2.44 l -0.24,-1.16 q 0.08,-0.16 0.04,-0.92 v -0.64 q -0.36,-0.64 0.44,-2.92 0.64,-3.04 1.04,-3.56 l 0.52,-1.04 q 0,-0.04 0.48,-0.6 0.08,-0.2 0.92,-0.8 0.16,-0.24 0.48,-0.28 0.16,-0.16 0.52,-0.28 0.32,-0.28 0.96,-0.36 0.6,-0.2 1.84,-0.12 2.84,0.24 3.88,2.4 l 0.28,0.88 q 0,0.2 0.12,0.48 -0.04,0.08 -0.04,0.32 z"
         style="font-family:'Caveat Brush';-inkscape-font-specification:'Caveat Brush'"
         id="path1141" />
      <path
         d="m 388.30344,317.84735 -0.16,-0.68 q 0,-2.68 -0.6,-3.72 -0.08,-0.04 -0.12,-0.04 -0.2,0 -0.28,0.48 -0.48,0.96 -0.88,2.64 -0.16,0.16 -0.36,1.2 -0.6,2.68 -0.92,3.32 l -0.08,0.6 q -0.28,0.92 -0.04,1.2 0,-0.16 1.68,-0.52 1.68,-0.36 1.76,-0.4 0.08,-0.04 0.04,-0.4 0,-0.36 0.24,-1.12 0.08,-0.04 -0.12,-0.28 -0.16,-0.28 -0.12,-0.84 -0.08,-0.24 -0.08,-0.68 0.04,-0.44 0.04,-0.76 z m 4.16,0.28 0.08,0.6 q 0.24,0.08 0.16,0.32 -0.08,0.24 -0.04,0.68 0.12,1.6 0.4,2.44 0,0.48 0.16,1.24 0.2,0.72 0.16,0.76 -0.04,0.04 -0.04,0.32 v 0.4 q -0.24,-0.52 -0.04,0.8 0.16,0.32 0.24,1 0.12,0.68 0.48,2.4 0.76,3 0.76,3.32 0,0.28 -0.24,0.96 -0.24,0.64 -0.72,0.92 l -1.8,0.12 q -0.6,-0.16 -1.48,-0.92 -0.52,-0.52 -0.64,-1.16 l -0.48,-1.36 q -0.04,-0.24 -0.04,-0.72 -0.04,-0.04 -0.12,-0.52 0.08,-0.2 -0.2,-0.8 v -0.72 q 0.12,-0.2 -0.16,-0.76 l -0.2,-1.28 q 0.08,-0.16 -0.48,-0.68 -0.4,0.2 -1.04,0.32 h -1.28 q -0.76,0 -1.28,0.04 -0.28,0 -0.28,1.6 -0.04,0.12 -0.2,0.56 0,0.2 -0.16,0.64 -0.16,0.44 -0.16,0.76 0,0.28 -0.08,0.4 -0.2,0.4 -0.56,1.92 -0.36,1.48 -0.56,1.96 -0.16,0.48 -0.04,0.6 0.04,0.12 -0.12,0.4 -0.16,0.28 -0.36,0.4 -0.44,0 -0.96,-0.2 -0.52,-0.2 -1.24,-0.2 -0.52,-0.08 -0.92,-1.04 -0.08,-0.28 -0.12,-0.48 0.08,-0.12 0.12,-0.6 -0.28,-0.2 -0.28,-0.76 l 0.04,-0.56 q 0,-0.36 0.2,-0.68 -0.04,0 0.16,-0.68 -0.24,-0.16 0.28,-2.44 0,-0.56 0.36,-1.64 0.16,-0.72 0.16,-0.96 0.04,-0.36 0.08,-0.44 0.04,-0.12 0.08,-0.28 0.44,-1.2 0.48,-1.64 0.04,-0.48 0.64,-1.92 0.12,-0.24 0.12,-0.72 0,-0.48 0.12,-0.76 0.12,-0.28 0.2,-0.64 0.12,-0.36 0.32,-0.76 -0.12,-0.12 0.08,-0.8 0,-0.24 0.32,-1 0.32,-0.8 0.32,-1 0.04,-0.24 0.08,-0.32 0.08,-0.12 0.16,-0.36 0.08,-0.24 0.24,-0.52 0.16,-0.28 0.16,-0.48 0.04,-0.2 0.24,-0.68 0,-0.28 0.12,-0.72 0.12,-0.12 0.52,-0.76 0,-0.24 0.68,-0.76 0.72,-0.52 0.88,-0.72 l 2.08,-0.32 q 0.04,-0.32 0.48,-0.96 1.24,-0.6 2.52,-0.4 0.04,0 0.16,0.04 0.16,0.04 0.36,0.08 0.24,0.04 0.52,0.12 0.32,0.08 0.32,0.56 l -0.04,4.76 q 0.08,0.32 0.12,1.68 0.08,1.32 0.24,1.92 0,0.92 -0.04,1.08 z"
         style="font-family:'Caveat Brush';-inkscape-font-specification:'Caveat Brush'"
         id="path1143" />
      <path
         d="m 398.23241,319.48735 q -0.28,-1.44 0.6,-2 0.44,-0.24 0.68,-0.2 0.28,0 1.72,0.44 0.2,0 0.28,0.08 0.08,0 0.24,0.08 0.36,0 0.36,0.16 0.36,0.6 0.44,1.4 0.16,1.64 0.4,2.68 0,-0.04 0.04,-0.12 0.76,-0.96 0.8,-1.12 -0.08,-0.08 0.28,-0.44 0.28,-0.88 0.4,-1.08 0,-0.2 0.36,-0.64 0.28,-0.56 0.48,-0.72 0.2,-0.2 0.32,-0.32 0.6,-0.6 1.6,-0.44 0.12,0 0.44,-0.04 0.64,-0.08 0.76,0.12 1.24,0 0.96,3.04 -0.16,1.36 -0.48,1.56 -0.32,0.2 -1.24,0.44 -0.88,0.24 -1.24,0.4 -1.4,0.6 -1.8,1.84 -0.04,0.44 -0.24,0.92 -0.08,0.64 -0.12,0.76 0,0.12 0,0.48 0,0.8 -0.24,1.52 -0.12,0.76 -0.12,2.44 0.04,1.64 -0.08,2.32 -0.08,0.68 -0.12,0.68 0.04,0.2 0.04,0.28 v 0.24 q -0.12,0.32 -0.76,0.96 l -0.6,0.04 q -0.92,0 -1,-0.12 -0.4,-0.16 -0.6,-0.48 -0.24,-0.04 -0.24,-0.32 -0.36,-0.08 -0.44,-0.48 -0.44,-0.48 -0.44,-0.64 -0.44,-1.52 -0.32,-2.64 v -2.04 q 0.08,-0.24 0.08,-0.28 v -0.36 q 0.24,-0.24 0.08,-0.32 v -0.32 q 0.04,-0.04 0.04,-0.28 0.04,-0.24 0.08,-0.84 0.08,-0.52 -0.28,-3.52 -0.16,-0.16 -0.56,-1.64 0,-0.24 -0.16,-0.56 v -0.36 q -0.16,-0.48 -0.28,-0.48 -0.12,-0.04 -0.12,-0.08 z"
         style="font-family:'Caveat Brush';-inkscape-font-specification:'Caveat Brush'"
         id="path1145" />
      <path
         d="m 413.52139,340.76735 q -0.16,-0.16 -0.32,-0.56 -0.16,-0.36 -0.16,-1.04 0,-0.68 0.44,-1.36 0.48,-0.68 1.08,-0.68 0.8,0 0.8,0.8 0,0.4 -0.04,0.64 0.16,0.24 0.32,0.76 0.16,0.52 0.32,0.72 0.2,0.2 0.28,0.2 h 0.2 q 0.64,0 1.4,-0.6 0.2,-0.36 0.2,-1.36 0,-1 -0.56,-1.4 l -0.44,-0.88 q -0.32,-0.48 -0.72,-0.96 -2.16,-0.2 -3.64,-1.68 -0.48,-0.48 -0.48,-0.92 -0.24,-0.76 -0.16,-1 -0.12,-1.12 0,-1.68 0.24,-1.28 1.88,-1.32 0.6,0 0.76,0.72 0.52,2.04 0.96,2.68 0.48,0.64 1.52,0.6 1.32,-0.08 1.24,-1.48 -0.04,-1.4 -1.32,-2.6 -0.4,-0.48 -0.8,-0.72 -0.36,-0.28 -0.48,-0.4 -0.04,-0.12 -0.2,-0.24 -0.8,-0.64 -2.04,-2.12 -1.2,-1.48 -1.28,-2.76 -0.16,-2.28 1.08,-3.6 1.08,-1.32 2.96,-1.4 3.08,-0.12 4.56,1.52 1.52,1.64 1.6,3.24 0.12,1.6 -0.8,1.72 -1.32,0.04 -1.72,-0.36 -0.36,0.04 -0.92,-0.52 -0.24,-0.12 -0.64,-0.92 l -0.44,-1 q -0.32,-0.72 -0.8,-0.8 -0.6,0.24 -0.6,1.2 0.16,1.88 1.8,3.6 0,0 0.04,0.12 0.08,0.08 0.6,0.64 3.16,3.48 3.28,5.6 0,1.36 -0.56,1.8 -1.16,1.32 -2.68,1.84 l 1.04,1.6 q 0.84,1.8 0.96,2.6 0.12,0.84 -0.76,2.08 -0.72,1.12 -2.72,1.24 -1,0.12 -3.08,-0.76 -0.08,-0.08 -0.44,-0.36 -0.32,-0.24 -0.52,-0.44 z"
         style="font-family:'Caveat Brush';-inkscape-font-specification:'Caveat Brush'"
         id="path1147" />
      <path
         d="m 427.61041,308.96735 q 2.68,0 3.76,1.08 0,0.68 -0.92,2.76 -0.16,0.68 -0.52,1.08 l -0.52,0.52 q -0.2,0.12 -0.4,0.12 -1.44,0.36 -2.24,-0.56 -0.16,-0.24 -0.4,-0.36 -0.2,-0.12 -0.32,-0.72 -0.36,-0.52 -0.36,-0.8 -0.08,-2.48 1.8,-3.12 z m -0.32,9.44 q 0.4,-0.2 1.88,0.4 0.16,0.16 0.48,0.32 l 0.64,0.52 q 0.16,0.16 0.16,0.52 v 3.52 q 0,0.8 -0.08,1.44 v 0.24 q -0.12,1.64 0.2,7.4 0.12,1.12 -0.52,1.36 -0.68,0 -0.88,-0.2 -0.16,-0.08 -0.28,-0.08 h -0.28 l -0.24,0.08 q -0.12,0 -0.44,-0.16 -0.32,-0.2 -0.44,-0.4 -0.08,-0.2 -0.32,-0.24 -0.44,-0.16 -0.48,-0.6 -0.56,-1.08 -0.6,-1.28 0,-0.2 -0.12,-0.44 l -0.2,-3.48 q 0,-0.6 0.08,-0.92 v -0.96 q 0.04,-0.44 0.08,-1.6 0.04,-1.2 0.12,-1.92 -0.08,-1.04 -0.08,-1.4 0,-0.36 0.04,-0.52 -0.44,-0.44 0.04,-1.2 0.52,-0.4 1,-0.4 z"
         style="font-family:'Caveat Brush';-inkscape-font-specification:'Caveat Brush'"
         id="path1149" />
      <path
         d="m 434.8194,321.44735 q 0,-0.6 0.12,-1.68 0,-0.96 0.16,-1.16 0,-0.28 0.84,-0.4 0.24,0 0.92,0.16 0.16,0.12 0.48,0.16 0.84,0.28 1.12,1.16 v 0.84 q 0.12,0.72 0.12,2.64 0.08,0.6 0.04,0.96 -0.04,0.32 -0.04,0.4 0.04,0.08 0.04,0.56 0.04,0.48 0.24,1.96 0,2 0.16,2.32 0,0.24 0.08,0.48 v 0.52 q 0.04,0.08 0.04,0.6 0,0.52 0.2,0.88 0.24,0.52 0.44,0.16 l 0.64,-1.92 q 0.04,-0.08 0.32,-0.52 0,-0.36 0.08,-0.52 -0.12,-0.16 0.36,-0.84 0.08,-0.44 0.48,-0.92 v -0.24 q 0.84,-1.88 0.96,-2.08 0.32,-1.44 0.4,-1.72 0.08,-0.32 0.08,-0.36 l 0.08,-0.24 q 0,-0.16 0.08,-0.64 0.28,-0.44 0.28,-0.64 0,-0.2 0.24,-0.92 0.16,-0.12 0.16,-0.56 0.08,-0.76 1.56,-1.6 h 0.12 q 0.24,-0.04 0.48,-0.04 0.28,0 0.56,0.04 0.32,0.04 0.4,0.08 0.12,0 0.36,0.08 0.24,0.08 0.32,0.2 0.12,0.08 0.24,0.28 0.24,0.36 0.16,1 l -3.92,10.4 q -0.64,1.16 -0.72,1.84 l -0.44,0.6 q -0.16,0.8 -2,2.64 -1.04,0.6 -2.16,0.16 l -0.68,-0.2 -0.76,-0.36 q -0.12,0 -1.08,-1.24 -0.24,-0.16 -0.44,-0.52 -0.2,-0.4 -0.36,-0.64 -0.16,-0.24 -0.24,-0.48 l -0.48,-1.8 -0.12,-1.2 -0.16,-0.52 q 0,-3.32 0.08,-3.6 0,-2.64 0.2,-3.04 z"
         style="font-family:'Caveat Brush';-inkscape-font-specification:'Caveat Brush'"
         id="path1151" />
      <path
         d="m 452.62841,308.16735 q 0.04,-0.04 0.76,-0.12 1.16,-0.2 1.6,0.16 0.48,0.32 0.68,0.72 0.08,1.28 -0.36,3.32 -0.44,1.32 -0.76,1.96 l -0.4,0.6 q -0.12,0.32 -0.52,0.68 -0.4,0.36 -0.6,0.36 -0.16,-0.04 -0.6,-0.28 -0.4,-0.28 -0.48,-0.4 -0.04,-0.12 -0.08,-0.28 l -0.2,-0.8 -0.8,-1 q -0.24,-0.48 -0.24,-0.96 -0.12,-1.12 0.28,-1.72 0,-0.08 0.12,-0.4 0.2,-0.88 1.6,-1.84 z m -1.2,17.96 q 0,-0.36 0.12,-0.96 0.16,-0.64 0.08,-0.88 -0.04,-0.24 0,-1.36 0.12,-0.48 0.04,-1.08 -0.28,-0.88 -0.16,-1.28 0.12,-0.4 0.52,-0.88 0.4,-0.52 0.88,-0.72 0.48,-0.2 1.44,0.04 0.24,0.12 0.8,0.8 0.12,0.12 0.28,0.92 0.2,0.8 0.24,1.76 0.08,0.92 0.12,2.72 0.04,1.76 0.16,4.76 0.12,2.96 0.04,3.68 -0.04,0.72 -0.52,1.08 -0.44,0.4 -0.8,0.16 -0.32,-0.2 -0.68,-0.28 -0.64,0 -1.12,-0.52 -0.16,-0.04 -0.76,-0.36 -0.6,-0.36 -0.76,-1.28 -0.2,-0.4 -0.12,-2.6 v -1.44 l 0.2,-1.36 z"
         style="font-family:'Caveat Brush';-inkscape-font-specification:'Caveat Brush'"
         id="path1153" />
    </g>
  </g>
</svg>
